<?xml version="1.0" standalone="no"?>
<!DOCTYPE svg PUBLIC "-//W3C//DTD SVG 20010904//EN"
 "http://www.w3.org/TR/2001/REC-SVG-20010904/DTD/svg10.dtd">
<svg version="1.0" xmlns="http://www.w3.org/2000/svg"
 width="70.000000pt" height="70.000000pt" viewBox="0 0 70.000000 70.000000"
 preserveAspectRatio="xMidYMid meet">
<metadata>
Created by potrace 1.11, written by Peter Selinger 2001-2013
</metadata>
<g transform="translate(0.000000,70.000000) scale(0.100000,-0.100000)"
fill="#000000" stroke="none">
<path d="M0 350 l0 -350 350 0 350 0 0 350 0 350 -350 0 -350 0 0 -350z m680
0 l0 -320 -330 0 -330 0 0 320 0 320 330 0 330 0 0 -320z"/>
<path d="M50 350 l0 -280 300 0 300 0 0 280 0 280 -300 0 -300 0 0 -280z m200
171 c0 -5 13 -14 29 -19 66 -23 85 -226 26 -284 -45 -45 -54 -48 -125 -48
l-70 0 0 164 c0 90 3 171 6 180 5 12 21 16 70 16 35 0 64 -4 64 -9z m313 -17
c21 -28 25 -91 7 -124 -10 -19 -9 -29 10 -62 25 -45 22 -88 -9 -125 -17 -21
-28 -23 -105 -23 l-86 0 0 164 c0 90 3 171 6 180 5 13 22 16 83 16 69 -1 78
-3 94 -26z"/>
<path d="M140 344 l0 -146 56 4 c38 3 59 10 65 21 5 9 17 24 27 33 13 14 17
35 17 94 0 73 -2 78 -32 108 -27 28 -39 32 -82 32 l-51 0 0 -146z"/>
<path d="M420 435 l0 -65 58 0 c54 0 60 2 71 26 9 20 9 35 1 59 -12 35 -31 45
-92 45 l-38 0 0 -65z"/>
<path d="M420 265 l0 -65 53 0 c61 0 72 6 87 45 8 21 8 36 -1 57 -11 27 -15
28 -75 28 l-64 0 0 -65z"/>
</g>
</svg>
